<svg xmlns="http://www.w3.org/2000/svg" viewBox="-1 -4 2070 1432" width="100%" height="100%"><line x1="60" y1="120" x2="660" y2="80" stroke="#000000" stroke-width="2" /><line x1="660" y1="120" x2="380" y2="200" stroke="#9ca3af" stroke-width="2" /><line x1="60" y1="600" x2="860" y2="360" stroke="#0057d8" stroke-width="2" /><line x1="60" y1="560" x2="860" y2="400" stroke="#ffd400" stroke-width="2" /><line x1="60" y1="640" x2="540" y2="320" stroke="#ffd400" stroke-width="2" /><line x1="540" y1="320" x2="860" y2="120" stroke="#ffd400" stroke-width="2" /><circle cx="540" cy="320" r="3" fill="#ffd400" stroke="black" stroke-width="1" /><line x1="60" y1="480" x2="860" y2="240" stroke="#9ca3af" stroke-width="2" /><line x1="60" y1="120" x2="300" y2="160" stroke="#000000" stroke-width="2" /><line x1="300" y1="160" x2="1020" y2="400" stroke="#000000" stroke-width="2" /><circle cx="300" cy="160" r="3" fill="#000000" stroke="black" stroke-width="1" /><line x1="380" y1="200" x2="780" y2="280" stroke="#9ca3af" stroke-width="2" /><line x1="780" y1="280" x2="1020" y2="360" stroke="#9ca3af" stroke-width="2" /><circle cx="780" cy="280" r="3" fill="#9ca3af" stroke="black" stroke-width="1" /><line x1="1020" y1="360" x2="940" y2="440" stroke="#9ca3af" stroke-width="2" /><line x1="900" y1="440" x2="900" y2="80" stroke="#9ca3af" stroke-width="2" /><line x1="900" y1="80" x2="860" y2="120" stroke="#9ca3af" stroke-width="2" /><circle cx="900" cy="80" r="3" fill="#9ca3af" stroke="black" stroke-width="1" /><line x1="60" y1="400" x2="860" y2="760" stroke="#0057d8" stroke-width="2" /><line x1="60" y1="360" x2="860" y2="800" stroke="#ffd400" stroke-width="2" /><line x1="60" y1="440" x2="540" y2="480" stroke="#ffd400" stroke-width="2" /><line x1="540" y1="480" x2="860" y2="520" stroke="#ffd400" stroke-width="2" /><circle cx="540" cy="480" r="3" fill="#ffd400" stroke="black" stroke-width="1" /><line x1="60" y1="280" x2="860" y2="640" stroke="#9ca3af" stroke-width="2" /><line x1="60" y1="720" x2="1020" y2="800" stroke="#000000" stroke-width="2" /><line x1="380" y1="200" x2="1020" y2="760" stroke="#9ca3af" stroke-width="2" /><line x1="1020" y1="760" x2="940" y2="840" stroke="#9ca3af" stroke-width="2" /><line x1="900" y1="840" x2="900" y2="480" stroke="#9ca3af" stroke-width="2" /><line x1="900" y1="480" x2="860" y2="520" stroke="#9ca3af" stroke-width="2" /><circle cx="900" cy="480" r="3" fill="#9ca3af" stroke="black" stroke-width="1" /><line x1="60" y1="760" x2="860" y2="1160" stroke="#0057d8" stroke-width="2" /><line x1="60" y1="800" x2="860" y2="1200" stroke="#ffd400" stroke-width="2" /><line x1="380" y1="800" x2="860" y2="920" stroke="#ffd400" stroke-width="2" /><line x1="60" y1="680" x2="860" y2="1040" stroke="#9ca3af" stroke-width="2" /><line x1="380" y1="720" x2="780" y2="1000" stroke="#000000" stroke-width="2" /><line x1="780" y1="1000" x2="1020" y2="1200" stroke="#000000" stroke-width="2" /><circle cx="780" cy="1000" r="3" fill="#000000" stroke="black" stroke-width="1" /><line x1="380" y1="200" x2="700" y2="720" stroke="#9ca3af" stroke-width="2" /><line x1="700" y1="720" x2="1020" y2="1160" stroke="#9ca3af" stroke-width="2" /><circle cx="700" cy="720" r="3" fill="#9ca3af" stroke="black" stroke-width="1" /><line x1="1020" y1="1160" x2="940" y2="1240" stroke="#9ca3af" stroke-width="2" /><line x1="900" y1="1240" x2="900" y2="880" stroke="#9ca3af" stroke-width="2" /><line x1="900" y1="880" x2="860" y2="920" stroke="#9ca3af" stroke-width="2" /><circle cx="900" cy="880" r="3" fill="#9ca3af" stroke="black" stroke-width="1" /><line x1="60" y1="240" x2="220" y2="240" stroke="#ffd400" stroke-width="2" /><line x1="220" y1="240" x2="1420" y2="440" stroke="#ffd400" stroke-width="2" /><circle cx="220" cy="240" r="3" fill="#ffd400" stroke="black" stroke-width="1" /><line x1="380" y1="480" x2="1220" y2="600" stroke="#ffd400" stroke-width="2" /><line x1="1220" y1="600" x2="1420" y2="600" stroke="#ffd400" stroke-width="2" /><circle cx="1220" cy="600" r="3" fill="#ffd400" stroke="black" stroke-width="1" /><line x1="380" y1="760" x2="660" y2="800" stroke="#ffd400" stroke-width="2" /><line x1="660" y1="800" x2="1420" y2="760" stroke="#ffd400" stroke-width="2" /><circle cx="660" cy="800" r="3" fill="#ffd400" stroke="black" stroke-width="1" /><line x1="1420" y1="160" x2="1380" y2="360" stroke="#000000" stroke-width="2" /><line x1="1380" y1="360" x2="1420" y2="480" stroke="#000000" stroke-width="2" /><circle cx="1380" cy="360" r="3" fill="#000000" stroke="black" stroke-width="1" /><line x1="1420" y1="480" x2="1380" y2="560" stroke="#000000" stroke-width="2" /><line x1="1380" y1="560" x2="1420" y2="640" stroke="#000000" stroke-width="2" /><circle cx="1380" cy="560" r="3" fill="#000000" stroke="black" stroke-width="1" /><line x1="1420" y1="640" x2="1380" y2="720" stroke="#000000" stroke-width="2" /><line x1="1380" y1="720" x2="1420" y2="800" stroke="#000000" stroke-width="2" /><circle cx="1380" cy="720" r="3" fill="#000000" stroke="black" stroke-width="1" /><line x1="1420" y1="520" x2="820" y2="320" stroke="#9ca3af" stroke-width="2" /><line x1="820" y1="320" x2="380" y2="200" stroke="#9ca3af" stroke-width="2" /><circle cx="820" cy="320" r="3" fill="#9ca3af" stroke="black" stroke-width="1" /><line x1="1420" y1="680" x2="1380" y2="600" stroke="#9ca3af" stroke-width="2" /><line x1="1380" y1="600" x2="1420" y2="520" stroke="#9ca3af" stroke-width="2" /><circle cx="1380" cy="600" r="3" fill="#9ca3af" stroke="black" stroke-width="1" /><line x1="1420" y1="840" x2="1380" y2="760" stroke="#9ca3af" stroke-width="2" /><line x1="1380" y1="760" x2="1420" y2="680" stroke="#9ca3af" stroke-width="2" /><circle cx="1380" cy="760" r="3" fill="#9ca3af" stroke="black" stroke-width="1" /><line x1="380" y1="320" x2="1420" y2="1320" stroke="#000000" stroke-width="2" /><line x1="380" y1="400" x2="780" y2="760" stroke="#9ca3af" stroke-width="2" /><line x1="780" y1="760" x2="1420" y2="1360" stroke="#9ca3af" stroke-width="2" /><circle cx="780" cy="760" r="3" fill="#9ca3af" stroke="black" stroke-width="1" /><line x1="380" y1="200" x2="780" y2="600" stroke="#9ca3af" stroke-width="2" /><line x1="780" y1="600" x2="1420" y2="1400" stroke="#9ca3af" stroke-width="2" /><circle cx="780" cy="600" r="3" fill="#9ca3af" stroke="black" stroke-width="1" /><line x1="1420" y1="1400" x2="1260" y2="1380" stroke="#9ca3af" stroke-width="2" /><line x1="1220" y1="1380" x2="1260" y2="1360" stroke="#9ca3af" stroke-width="2" /><line x1="1260" y1="1360" x2="1420" y2="1360" stroke="#9ca3af" stroke-width="2" /><circle cx="1260" cy="1360" r="3" fill="#9ca3af" stroke="black" stroke-width="1" /><line x1="1420" y1="240" x2="1020" y2="280" stroke="#ff0000" stroke-width="2" /><line x1="1420" y1="280" x2="1020" y2="320" stroke="#000000" stroke-width="2" /><line x1="1420" y1="320" x2="1020" y2="240" stroke="#ffd400" stroke-width="2" /><line x1="1420" y1="360" x2="1020" y2="200" stroke="#0057d8" stroke-width="2" /><line x1="1420" y1="920" x2="1020" y2="680" stroke="#ff0000" stroke-width="2" /><line x1="1420" y1="960" x2="1020" y2="720" stroke="#000000" stroke-width="2" /><line x1="1420" y1="1000" x2="1020" y2="640" stroke="#ffd400" stroke-width="2" /><line x1="1420" y1="1040" x2="1020" y2="600" stroke="#0057d8" stroke-width="2" /><line x1="1420" y1="1120" x2="1020" y2="1080" stroke="#ff0000" stroke-width="2" /><line x1="1420" y1="1160" x2="1020" y2="1120" stroke="#000000" stroke-width="2" /><line x1="1420" y1="1200" x2="1020" y2="1040" stroke="#ffd400" stroke-width="2" /><line x1="1420" y1="1240" x2="1020" y2="1000" stroke="#0057d8" stroke-width="2" /><line x1="1420" y1="80" x2="1020" y2="120" stroke="#ff0000" stroke-width="2" /><line x1="1420" y1="80" x2="1020" y2="520" stroke="#ff0000" stroke-width="2" /><line x1="1420" y1="80" x2="1020" y2="920" stroke="#ff0000" stroke-width="2" /><line x1="1420" y1="160" x2="1020" y2="160" stroke="#000000" stroke-width="2" /><line x1="1420" y1="160" x2="1020" y2="560" stroke="#000000" stroke-width="2" /><line x1="1420" y1="160" x2="1020" y2="960" stroke="#000000" stroke-width="2" /><line x1="1420" y1="160" x2="580" y2="800" stroke="#000000" stroke-width="2" /><line x1="580" y1="800" x2="220" y2="1080" stroke="#000000" stroke-width="2" /><circle cx="580" cy="800" r="3" fill="#000000" stroke="black" stroke-width="1" /><line x1="380" y1="560" x2="340" y2="680" stroke="#ffd400" stroke-width="2" /><line x1="340" y1="680" x2="300" y2="1080" stroke="#ffd400" stroke-width="2" /><circle cx="340" cy="680" r="3" fill="#ffd400" stroke="black" stroke-width="1" /><circle cx="60" cy="40" r="6" fill="lightgray" stroke="black" /><text x="60" y="62" font-size="12px" font-family="monospace" text-anchor="middle">PICO_GPIO_0</text><circle cx="60" cy="80" r="6" fill="lightgray" stroke="black" /><text x="71" y="84" font-size="12px" font-family="monospace" text-anchor="start">PICO_GPIO_1</text><circle cx="60" cy="120" r="6" fill="lightgray" stroke="black" /><text x="71" y="124" font-size="12px" font-family="monospace" text-anchor="start">PICO_GND_03</text><circle cx="60" cy="160" r="6" fill="lightgray" stroke="black" /><text x="71" y="164" font-size="12px" font-family="monospace" text-anchor="start">PICO_GPIO_2</text><circle cx="60" cy="200" r="6" fill="lightgray" stroke="black" /><text x="71" y="204" font-size="12px" font-family="monospace" text-anchor="start">PICO_GPIO_3</text><circle cx="60" cy="240" r="6" fill="lightgray" stroke="black" /><text x="71" y="244" font-size="12px" font-family="monospace" text-anchor="start">PICO_GPIO_4</text><circle cx="60" cy="280" r="6" fill="lightgray" stroke="black" /><text x="71" y="284" font-size="12px" font-family="monospace" text-anchor="start">PICO_GPIO_5</text><circle cx="60" cy="320" r="6" fill="lightgray" stroke="black" /><text x="71" y="324" font-size="12px" font-family="monospace" text-anchor="start">PICO_GND_08</text><circle cx="60" cy="360" r="6" fill="lightgray" stroke="black" /><text x="71" y="364" font-size="12px" font-family="monospace" text-anchor="start">PICO_GPIO_6</text><circle cx="60" cy="400" r="6" fill="lightgray" stroke="black" /><text x="71" y="404" font-size="12px" font-family="monospace" text-anchor="start">PICO_GPIO_7</text><circle cx="60" cy="440" r="6" fill="lightgray" stroke="black" /><text x="71" y="444" font-size="12px" font-family="monospace" text-anchor="start">PICO_GPIO_8</text><circle cx="60" cy="480" r="6" fill="lightgray" stroke="black" /><text x="71" y="484" font-size="12px" font-family="monospace" text-anchor="start">PICO_GPIO_9</text><circle cx="60" cy="520" r="6" fill="lightgray" stroke="black" /><text x="71" y="524" font-size="12px" font-family="monospace" text-anchor="start">PICO_GND_13</text><circle cx="60" cy="560" r="6" fill="lightgray" stroke="black" /><text x="71" y="564" font-size="12px" font-family="monospace" text-anchor="start">PICO_GPIO_10</text><circle cx="60" cy="600" r="6" fill="lightgray" stroke="black" /><text x="71" y="604" font-size="12px" font-family="monospace" text-anchor="start">PICO_GPIO_11</text><circle cx="60" cy="640" r="6" fill="lightgray" stroke="black" /><text x="71" y="644" font-size="12px" font-family="monospace" text-anchor="start">PICO_GPIO_12</text><circle cx="60" cy="680" r="6" fill="lightgray" stroke="black" /><text x="71" y="684" font-size="12px" font-family="monospace" text-anchor="start">PICO_GPIO_13</text><circle cx="60" cy="720" r="6" fill="lightgray" stroke="black" /><text x="71" y="724" font-size="12px" font-family="monospace" text-anchor="start">PICO_GND_18</text><circle cx="60" cy="760" r="6" fill="lightgray" stroke="black" /><text x="71" y="764" font-size="12px" font-family="monospace" text-anchor="start">PICO_GPIO_14</text><circle cx="60" cy="800" r="6" fill="lightgray" stroke="black" /><text x="71" y="804" font-size="12px" font-family="monospace" text-anchor="start">PICO_GPIO_15</text><circle cx="380" cy="40" r="6" fill="lightgray" stroke="black" /><text x="380" y="62" font-size="12px" font-family="monospace" text-anchor="middle">PICO_VBUS_40</text><circle cx="380" cy="80" r="6" fill="lightgray" stroke="black" /><text x="391" y="84" font-size="12px" font-family="monospace" text-anchor="start">PICO_VSYS_39</text><circle cx="380" cy="120" r="6" fill="lightgray" stroke="black" /><text x="391" y="124" font-size="12px" font-family="monospace" text-anchor="start">PICO_GND_38</text><circle cx="380" cy="160" r="6" fill="lightgray" stroke="black" /><text x="391" y="164" font-size="12px" font-family="monospace" text-anchor="start">PICO_THREEV3_EN_37</text><circle cx="380" cy="200" r="6" fill="lightgray" stroke="black" /><text x="391" y="204" font-size="12px" font-family="monospace" text-anchor="start">PICO_THREEV3_OUT_36</text><circle cx="380" cy="240" r="6" fill="lightgray" stroke="black" /><text x="391" y="244" font-size="12px" font-family="monospace" text-anchor="start">PICO_ADC_VREF_35</text><circle cx="380" cy="280" r="6" fill="lightgray" stroke="black" /><text x="391" y="284" font-size="12px" font-family="monospace" text-anchor="start">PICO_GPIO_28_ADC2_34</text><circle cx="380" cy="320" r="6" fill="lightgray" stroke="black" /><text x="391" y="324" font-size="12px" font-family="monospace" text-anchor="start">PICO_AGND_33</text><circle cx="380" cy="360" r="6" fill="lightgray" stroke="black" /><text x="391" y="364" font-size="12px" font-family="monospace" text-anchor="start">PICO_GPIO_27_ADC1_32</text><circle cx="380" cy="400" r="6" fill="lightgray" stroke="black" /><text x="391" y="404" font-size="12px" font-family="monospace" text-anchor="start">PICO_GPIO_26_ADC0_31</text><circle cx="380" cy="440" r="6" fill="lightgray" stroke="black" /><text x="391" y="444" font-size="12px" font-family="monospace" text-anchor="start">PICO_RUN_30</text><circle cx="380" cy="480" r="6" fill="lightgray" stroke="black" /><text x="391" y="484" font-size="12px" font-family="monospace" text-anchor="start">PICO_GPIO_22_29</text><circle cx="380" cy="520" r="6" fill="lightgray" stroke="black" /><text x="391" y="524" font-size="12px" font-family="monospace" text-anchor="start">PICO_GND_28</text><circle cx="380" cy="560" r="6" fill="lightgray" stroke="black" /><text x="391" y="564" font-size="12px" font-family="monospace" text-anchor="start">PICO_GPIO_21_27</text><circle cx="380" cy="600" r="6" fill="lightgray" stroke="black" /><text x="391" y="604" font-size="12px" font-family="monospace" text-anchor="start">PICO_GPIO_20_26</text><circle cx="380" cy="640" r="6" fill="lightgray" stroke="black" /><text x="391" y="644" font-size="12px" font-family="monospace" text-anchor="start">PICO_GPIO_19_25</text><circle cx="380" cy="680" r="6" fill="lightgray" stroke="black" /><text x="391" y="684" font-size="12px" font-family="monospace" text-anchor="start">PICO_GPIO_18_24</text><circle cx="380" cy="720" r="6" fill="lightgray" stroke="black" /><text x="391" y="724" font-size="12px" font-family="monospace" text-anchor="start">PICO_GND_23</text><circle cx="380" cy="760" r="6" fill="lightgray" stroke="black" /><text x="391" y="764" font-size="12px" font-family="monospace" text-anchor="start">PICO_GPIO_17_22</text><circle cx="380" cy="800" r="6" fill="lightgray" stroke="black" /><text x="391" y="804" font-size="12px" font-family="monospace" text-anchor="start">PICO_GPIO_16_21</text><circle cx="860" cy="120" r="6" fill="lightgray" stroke="black" /><text x="860" y="142" font-size="12px" font-family="monospace" text-anchor="middle">TMC1_J1_EN_1</text><circle cx="860" cy="160" r="6" fill="lightgray" stroke="black" /><text x="871" y="164" font-size="12px" font-family="monospace" text-anchor="start">TMC1_J1_MS1_2</text><circle cx="860" cy="200" r="6" fill="lightgray" stroke="black" /><text x="871" y="204" font-size="12px" font-family="monospace" text-anchor="start">TMC1_J1_MS2_3</text><circle cx="860" cy="240" r="6" fill="lightgray" stroke="black" /><text x="871" y="244" font-size="12px" font-family="monospace" text-anchor="start">TMC1_J1_UART_PDN_4</text><circle cx="860" cy="280" r="6" fill="lightgray" stroke="black" /><text x="871" y="284" font-size="12px" font-family="monospace" text-anchor="start">TMC1_J1_STDBY_5</text><circle cx="860" cy="320" r="6" fill="lightgray" stroke="black" /><text x="871" y="324" font-size="12px" font-family="monospace" text-anchor="start">TMC1_J1_CLK_6</text><circle cx="860" cy="360" r="6" fill="lightgray" stroke="black" /><text x="871" y="364" font-size="12px" font-family="monospace" text-anchor="start">TMC1_J1_STEP_7</text><circle cx="860" cy="400" r="6" fill="lightgray" stroke="black" /><text x="871" y="404" font-size="12px" font-family="monospace" text-anchor="start">TMC1_J1_DIR_8</text><circle cx="1020" cy="120" r="6" fill="lightgray" stroke="black" /><text x="1020" y="142" font-size="12px" font-family="monospace" text-anchor="middle">TMC1_J2_VM_1</text><circle cx="1020" cy="160" r="6" fill="lightgray" stroke="black" /><text x="1031" y="164" font-size="12px" font-family="monospace" text-anchor="start">TMC1_J2_GND_MOTOR_2</text><circle cx="1020" cy="200" r="6" fill="lightgray" stroke="black" /><text x="1031" y="204" font-size="12px" font-family="monospace" text-anchor="start">TMC1_J2_B2_3</text><circle cx="1020" cy="240" r="6" fill="lightgray" stroke="black" /><text x="1031" y="244" font-size="12px" font-family="monospace" text-anchor="start">TMC1_J2_B1_4</text><circle cx="1020" cy="280" r="6" fill="lightgray" stroke="black" /><text x="1031" y="284" font-size="12px" font-family="monospace" text-anchor="start">TMC1_J2_A1_5</text><circle cx="1020" cy="320" r="6" fill="lightgray" stroke="black" /><text x="1031" y="324" font-size="12px" font-family="monospace" text-anchor="start">TMC1_J2_A2_6</text><circle cx="1020" cy="360" r="6" fill="lightgray" stroke="black" /><text x="1031" y="364" font-size="12px" font-family="monospace" text-anchor="start">TMC1_J2_VIO_7</text><circle cx="1020" cy="400" r="6" fill="lightgray" stroke="black" /><text x="1031" y="404" font-size="12px" font-family="monospace" text-anchor="start">TMC1_J2_GND_LOGIC_8</text><circle cx="860" cy="520" r="6" fill="lightgray" stroke="black" /><text x="860" y="542" font-size="12px" font-family="monospace" text-anchor="middle">TMC2_J1_EN_1</text><circle cx="860" cy="560" r="6" fill="lightgray" stroke="black" /><text x="871" y="564" font-size="12px" font-family="monospace" text-anchor="start">TMC2_J1_MS1_2</text><circle cx="860" cy="600" r="6" fill="lightgray" stroke="black" /><text x="871" y="604" font-size="12px" font-family="monospace" text-anchor="start">TMC2_J1_MS2_3</text><circle cx="860" cy="640" r="6" fill="lightgray" stroke="black" /><text x="871" y="644" font-size="12px" font-family="monospace" text-anchor="start">TMC2_J1_UART_PDN_4</text><circle cx="860" cy="680" r="6" fill="lightgray" stroke="black" /><text x="871" y="684" font-size="12px" font-family="monospace" text-anchor="start">TMC2_J1_STDBY_5</text><circle cx="860" cy="720" r="6" fill="lightgray" stroke="black" /><text x="871" y="724" font-size="12px" font-family="monospace" text-anchor="start">TMC2_J1_CLK_6</text><circle cx="860" cy="760" r="6" fill="lightgray" stroke="black" /><text x="871" y="764" font-size="12px" font-family="monospace" text-anchor="start">TMC2_J1_STEP_7</text><circle cx="860" cy="800" r="6" fill="lightgray" stroke="black" /><text x="871" y="804" font-size="12px" font-family="monospace" text-anchor="start">TMC2_J1_DIR_8</text><circle cx="1020" cy="520" r="6" fill="lightgray" stroke="black" /><text x="1020" y="542" font-size="12px" font-family="monospace" text-anchor="middle">TMC2_J2_VM_1</text><circle cx="1020" cy="560" r="6" fill="lightgray" stroke="black" /><text x="1031" y="564" font-size="12px" font-family="monospace" text-anchor="start">TMC2_J2_GND_MOTOR_2</text><circle cx="1020" cy="600" r="6" fill="lightgray" stroke="black" /><text x="1031" y="604" font-size="12px" font-family="monospace" text-anchor="start">TMC2_J2_B2_3</text><circle cx="1020" cy="640" r="6" fill="lightgray" stroke="black" /><text x="1031" y="644" font-size="12px" font-family="monospace" text-anchor="start">TMC2_J2_B1_4</text><circle cx="1020" cy="680" r="6" fill="lightgray" stroke="black" /><text x="1031" y="684" font-size="12px" font-family="monospace" text-anchor="start">TMC2_J2_A1_5</text><circle cx="1020" cy="720" r="6" fill="lightgray" stroke="black" /><text x="1031" y="724" font-size="12px" font-family="monospace" text-anchor="start">TMC2_J2_A2_6</text><circle cx="1020" cy="760" r="6" fill="lightgray" stroke="black" /><text x="1031" y="764" font-size="12px" font-family="monospace" text-anchor="start">TMC2_J2_VIO_7</text><circle cx="1020" cy="800" r="6" fill="lightgray" stroke="black" /><text x="1031" y="804" font-size="12px" font-family="monospace" text-anchor="start">TMC2_J2_GND_LOGIC_8</text><circle cx="860" cy="920" r="6" fill="lightgray" stroke="black" /><text x="860" y="942" font-size="12px" font-family="monospace" text-anchor="middle">TMC3_J1_EN_1</text><circle cx="860" cy="960" r="6" fill="lightgray" stroke="black" /><text x="871" y="964" font-size="12px" font-family="monospace" text-anchor="start">TMC3_J1_MS1_2</text><circle cx="860" cy="1000" r="6" fill="lightgray" stroke="black" /><text x="871" y="1004" font-size="12px" font-family="monospace" text-anchor="start">TMC3_J1_MS2_3</text><circle cx="860" cy="1040" r="6" fill="lightgray" stroke="black" /><text x="871" y="1044" font-size="12px" font-family="monospace" text-anchor="start">TMC3_J1_UART_PDN_4</text><circle cx="860" cy="1080" r="6" fill="lightgray" stroke="black" /><text x="871" y="1084" font-size="12px" font-family="monospace" text-anchor="start">TMC3_J1_STDBY_5</text><circle cx="860" cy="1120" r="6" fill="lightgray" stroke="black" /><text x="871" y="1124" font-size="12px" font-family="monospace" text-anchor="start">TMC3_J1_CLK_6</text><circle cx="860" cy="1160" r="6" fill="lightgray" stroke="black" /><text x="871" y="1164" font-size="12px" font-family="monospace" text-anchor="start">TMC3_J1_STEP_7</text><circle cx="860" cy="1200" r="6" fill="lightgray" stroke="black" /><text x="871" y="1204" font-size="12px" font-family="monospace" text-anchor="start">TMC3_J1_DIR_8</text><circle cx="1020" cy="920" r="6" fill="lightgray" stroke="black" /><text x="1020" y="942" font-size="12px" font-family="monospace" text-anchor="middle">TMC3_J2_VM_1</text><circle cx="1020" cy="960" r="6" fill="lightgray" stroke="black" /><text x="1031" y="964" font-size="12px" font-family="monospace" text-anchor="start">TMC3_J2_GND_MOTOR_2</text><circle cx="1020" cy="1000" r="6" fill="lightgray" stroke="black" /><text x="1031" y="1004" font-size="12px" font-family="monospace" text-anchor="start">TMC3_J2_B2_3</text><circle cx="1020" cy="1040" r="6" fill="lightgray" stroke="black" /><text x="1031" y="1044" font-size="12px" font-family="monospace" text-anchor="start">TMC3_J2_B1_4</text><circle cx="1020" cy="1080" r="6" fill="lightgray" stroke="black" /><text x="1031" y="1084" font-size="12px" font-family="monospace" text-anchor="start">TMC3_J2_A1_5</text><circle cx="1020" cy="1120" r="6" fill="lightgray" stroke="black" /><text x="1031" y="1124" font-size="12px" font-family="monospace" text-anchor="start">TMC3_J2_A2_6</text><circle cx="1020" cy="1160" r="6" fill="lightgray" stroke="black" /><text x="1031" y="1164" font-size="12px" font-family="monospace" text-anchor="start">TMC3_J2_VIO_7</text><circle cx="1020" cy="1200" r="6" fill="lightgray" stroke="black" /><text x="1031" y="1204" font-size="12px" font-family="monospace" text-anchor="start">TMC3_J2_GND_LOGIC_8</text><circle cx="900" cy="440" r="6" fill="lightgray" stroke="black" /><text x="900" y="462" font-size="12px" font-family="monospace" text-anchor="middle">TMC1_10K_PULL_UP_1</text><circle cx="940" cy="440" r="6" fill="lightgray" stroke="black" /><text x="951" y="444" font-size="12px" font-family="monospace" text-anchor="start">TMC1_10K_PULL_UP_2</text><circle cx="900" cy="840" r="6" fill="lightgray" stroke="black" /><text x="900" y="862" font-size="12px" font-family="monospace" text-anchor="middle">TMC2_10K_PULL_UP_1</text><circle cx="940" cy="840" r="6" fill="lightgray" stroke="black" /><text x="951" y="844" font-size="12px" font-family="monospace" text-anchor="start">TMC2_10K_PULL_UP_2</text><circle cx="900" cy="1240" r="6" fill="lightgray" stroke="black" /><text x="900" y="1262" font-size="12px" font-family="monospace" text-anchor="middle">TMC3_10K_PULL_UP_1</text><circle cx="940" cy="1240" r="6" fill="lightgray" stroke="black" /><text x="951" y="1244" font-size="12px" font-family="monospace" text-anchor="start">TMC3_10K_PULL_UP_2</text><circle cx="660" cy="80" r="6" fill="lightgray" stroke="black" /><text x="660" y="102" font-size="12px" font-family="monospace" text-anchor="middle">PICO_POWER_CAP_1</text><circle cx="660" cy="120" r="6" fill="lightgray" stroke="black" /><text x="671" y="124" font-size="12px" font-family="monospace" text-anchor="start">PICO_POWER_CAP_2</text><circle cx="1420" cy="1320" r="6" fill="lightgray" stroke="black" /><text x="1431" y="1324" font-size="12px" font-family="monospace" text-anchor="start">HEATBED_THERM_GND</text><circle cx="1420" cy="1360" r="6" fill="lightgray" stroke="black" /><text x="1431" y="1364" font-size="12px" font-family="monospace" text-anchor="start">HEATBED_THERM_SIGNAL</text><circle cx="1420" cy="1400" r="6" fill="lightgray" stroke="black" /><text x="1431" y="1404" font-size="12px" font-family="monospace" text-anchor="start">HEATBED_THERM_REF</text><circle cx="1220" cy="1380" r="6" fill="lightgray" stroke="black" /><text x="1228" y="1356" font-size="11px" font-family="monospace" text-anchor="start" transform="rotate(-45,1228,1356)">R_BED_4K7_SIG</text><circle cx="1260" cy="1380" r="6" fill="lightgray" stroke="black" /><text x="1260" y="1402" font-size="12px" font-family="monospace" text-anchor="middle">R_BED_4K7_REF</text><circle cx="1420" cy="440" r="6" fill="lightgray" stroke="black" /><text x="1431" y="444" font-size="12px" font-family="monospace" text-anchor="start">ENDSTOP_Y_NO</text><circle cx="1420" cy="480" r="6" fill="lightgray" stroke="black" /><text x="1431" y="484" font-size="12px" font-family="monospace" text-anchor="start">ENDSTOP_Y_GND</text><circle cx="1420" cy="520" r="6" fill="lightgray" stroke="black" /><text x="1431" y="524" font-size="12px" font-family="monospace" text-anchor="start">ENDSTOP_Y_VCC</text><circle cx="1420" cy="240" r="6" fill="lightgray" stroke="black" /><text x="1431" y="244" font-size="12px" font-family="monospace" text-anchor="start">MOTOR_Y_A_PLUS</text><circle cx="1420" cy="280" r="6" fill="lightgray" stroke="black" /><text x="1431" y="284" font-size="12px" font-family="monospace" text-anchor="start">MOTOR_Y_A_MINUS</text><circle cx="1420" cy="320" r="6" fill="lightgray" stroke="black" /><text x="1431" y="324" font-size="12px" font-family="monospace" text-anchor="start">MOTOR_Y_B_PLUS</text><circle cx="1420" cy="360" r="6" fill="lightgray" stroke="black" /><text x="1431" y="364" font-size="12px" font-family="monospace" text-anchor="start">MOTOR_Y_B_MINUS</text><circle cx="1420" cy="600" r="6" fill="lightgray" stroke="black" /><text x="1431" y="604" font-size="12px" font-family="monospace" text-anchor="start">ENDSTOP_Z_LEFT_NO</text><circle cx="1420" cy="640" r="6" fill="lightgray" stroke="black" /><text x="1431" y="644" font-size="12px" font-family="monospace" text-anchor="start">ENDSTOP_Z_LEFT_GND</text><circle cx="1420" cy="680" r="6" fill="lightgray" stroke="black" /><text x="1431" y="684" font-size="12px" font-family="monospace" text-anchor="start">ENDSTOP_Z_LEFT_VCC</text><circle cx="1420" cy="760" r="6" fill="lightgray" stroke="black" /><text x="1431" y="764" font-size="12px" font-family="monospace" text-anchor="start">ENDSTOP_Z_RIGHT_NO</text><circle cx="1420" cy="800" r="6" fill="lightgray" stroke="black" /><text x="1431" y="804" font-size="12px" font-family="monospace" text-anchor="start">ENDSTOP_Z_RIGHT_GND</text><circle cx="1420" cy="840" r="6" fill="lightgray" stroke="black" /><text x="1431" y="844" font-size="12px" font-family="monospace" text-anchor="start">ENDSTOP_Z_RIGHT_VCC</text><circle cx="1420" cy="920" r="6" fill="lightgray" stroke="black" /><text x="1431" y="924" font-size="12px" font-family="monospace" text-anchor="start">MOTOR_Z_LEFT_A_PLUS</text><circle cx="1420" cy="960" r="6" fill="lightgray" stroke="black" /><text x="1431" y="964" font-size="12px" font-family="monospace" text-anchor="start">MOTOR_Z_LEFT_A_MINUS</text><circle cx="1420" cy="1000" r="6" fill="lightgray" stroke="black" /><text x="1431" y="1004" font-size="12px" font-family="monospace" text-anchor="start">MOTOR_Z_LEFT_B_PLUS</text><circle cx="1420" cy="1040" r="6" fill="lightgray" stroke="black" /><text x="1431" y="1044" font-size="12px" font-family="monospace" text-anchor="start">MOTOR_Z_LEFT_B_MINUS</text><circle cx="1420" cy="1120" r="6" fill="lightgray" stroke="black" /><text x="1431" y="1124" font-size="12px" font-family="monospace" text-anchor="start">MOTOR_Z_RIGHT_A_PLUS</text><circle cx="1420" cy="1160" r="6" fill="lightgray" stroke="black" /><text x="1431" y="1164" font-size="12px" font-family="monospace" text-anchor="start">MOTOR_Z_RIGHT_A_MINUS</text><circle cx="1420" cy="1200" r="6" fill="lightgray" stroke="black" /><text x="1431" y="1204" font-size="12px" font-family="monospace" text-anchor="start">MOTOR_Z_RIGHT_B_PLUS</text><circle cx="1420" cy="1240" r="6" fill="lightgray" stroke="black" /><text x="1431" y="1244" font-size="12px" font-family="monospace" text-anchor="start">MOTOR_Z_RIGHT_B_MINUS</text><circle cx="1420" cy="80" r="6" fill="lightgray" stroke="black" /><text x="1420" y="102" font-size="12px" font-family="monospace" text-anchor="middle">PWR_V24</text><circle cx="1420" cy="120" r="6" fill="lightgray" stroke="black" /><text x="1431" y="124" font-size="12px" font-family="monospace" text-anchor="start">PWR_N/C</text><circle cx="1420" cy="160" r="6" fill="lightgray" stroke="black" /><text x="1431" y="164" font-size="12px" font-family="monospace" text-anchor="start">PWR_GND</text><circle cx="220" cy="1080" r="6" fill="lightgray" stroke="black" /><text x="228" y="1056" font-size="11px" font-family="monospace" text-anchor="start" transform="rotate(-45,228,1056)">MOSFET_GND</text><circle cx="260" cy="1080" r="6" fill="lightgray" stroke="black" /><text x="260" y="1102" font-size="12px" font-family="monospace" text-anchor="middle">MOSFET_NC</text><circle cx="300" cy="1080" r="6" fill="lightgray" stroke="black" /><text x="308" y="1056" font-size="11px" font-family="monospace" text-anchor="start" transform="rotate(-45,308,1056)">MOSFET_HEATBED_ON</text><circle cx="340" cy="1080" r="6" fill="lightgray" stroke="black" /><text x="340" y="1102" font-size="12px" font-family="monospace" text-anchor="middle">MOSFET_NC_2</text><text x="2049" y="30" font-size="16px" font-family="sans-serif" font-weight="bold" text-anchor="end" fill="darkblue">Top View</text><text x="2049" y="50" font-size="12px" font-family="sans-serif" text-anchor="end" fill="darkgreen">Pico W + BTT TMC2226 (Y + dual Z)</text><text x="2049" y="70" font-size="10px" font-family="sans-serif" text-anchor="end" fill="black">Three-driver wiring for Y, Z-left, and Z-right.</text><text x="2049" y="85" font-size="10px" font-family="sans-serif" text-anchor="end" fill="black">Driver1 (Y): STEP=GPIO11, DIR=GPIO10, EN=GPIO12, UART=GPIO9, endstop=GPIO4.</text><text x="2049" y="100" font-size="10px" font-family="sans-serif" text-anchor="end" fill="black">Driver2 (Z-left): STEP=GPIO7, DIR=GPIO6, EN=GPIO8, UART=GPIO5.</text><text x="2049" y="115" font-size="10px" font-family="sans-serif" text-anchor="end" fill="black">Driver3 (Z-right): STEP=GPIO14, DIR=GPIO15, EN=GPIO16, UART=GPIO13.</text><text x="2049" y="130" font-size="10px" font-family="sans-serif" text-anchor="end" fill="black">Z endstops: Z-left=GPIO22, Z-right=GPIO17.</text><text x="2049" y="145" font-size="10px" font-family="sans-serif" text-anchor="end" fill="black">Heatbed MOSFET: HEATBED_ON=GPIO21.</text><text x="2049" y="160" font-size="10px" font-family="sans-serif" text-anchor="end" fill="black">Heatbed thermistor: SIGNAL=GPIO26_ADC0, GND=AGND, 4.7k pull-up REF-to-SIGNAL.</text></svg>